<svg xmlns="http://www.w3.org/2000/svg" xmlns:xlink="http://www.w3.org/1999/xlink" version="1.0" width="24" height="24" id="svg2453"><defs id="defs2455"><linearGradient id="linearGradient5060"><stop id="stop5062" offset="0" stop-color="#000" stop-opacity="1"/><stop id="stop5064" offset="1" stop-color="#000" stop-opacity="0"/></linearGradient><linearGradient id="linearGradient5048"><stop id="stop5050" offset="0" stop-color="#000" stop-opacity="0"/><stop id="stop5056" offset=".5" stop-color="#000" stop-opacity="1"/><stop id="stop5052" offset="1" stop-color="#000" stop-opacity="0"/></linearGradient><linearGradient id="linearGradient3462"><stop offset="0" id="stop3464" stop-color="#fff" stop-opacity="1"/><stop offset="0" id="stop3466" stop-color="#fff" stop-opacity=".235"/><stop offset="1" id="stop3468" stop-color="#fff" stop-opacity=".157"/><stop offset="1" id="stop3470" stop-color="#fff" stop-opacity=".392"/></linearGradient><linearGradient xlink:href="#linearGradient3462" id="linearGradient3345" gradientUnits="userSpaceOnUse" gradientTransform="matrix(.56757 0 0 .4054 -1.622 3.27)" x1="40.29" y1="6.733" x2="40.29" y2="41.267"/><linearGradient xlink:href="#linearGradient863" id="linearGradient937" x1="23.25" y1="-28.809" x2="23.25" y2="70.295" gradientUnits="userSpaceOnUse" gradientTransform="matrix(.52272 0 0 .48571 -.545 .129)"/><linearGradient xlink:href="#linearGradient3880" id="linearGradient3887" x1="10" y1="-3" x2="20" y2="12" gradientUnits="userSpaceOnUse" gradientTransform="matrix(.56222 0 0 .51638 .193 8.91)"/><linearGradient id="linearGradient3880"><stop offset="0" id="stop3883" stop-color="#fff" stop-opacity="1"/><stop offset="1" id="stop3885" stop-color="#fff" stop-opacity="0"/></linearGradient><linearGradient x1="302.857" y1="366.648" x2="302.857" y2="609.505" id="linearGradient19619-3" xlink:href="#linearGradient5048" gradientUnits="userSpaceOnUse" gradientTransform="matrix(.04225 0 0 .00618 -3.27 18.735)"/><linearGradient id="linearGradient863"><stop offset="0" id="stop859" stop-color="#fafafa" stop-opacity="1"/><stop offset="1" id="stop861" stop-color="#d4d4d4" stop-opacity="1"/></linearGradient><linearGradient gradientTransform="matrix(.11485 0 0 .10322 .466 5.242)" y2="75.171" x2="68.522" y1="75.171" x1="27.959" gradientUnits="userSpaceOnUse" id="SVGID_4_"><stop id="stop6363" offset="0" stop-color="#1f286f"/><stop id="stop6365" offset=".475" stop-color="#004e94"/><stop id="stop6367" offset=".826" stop-color="#0066b1"/><stop id="stop6369" offset="1" stop-color="#006fbc"/></linearGradient><linearGradient gradientTransform="matrix(.11485 0 0 .10303 1.321 5.247)" y2="75.171" x2="111.855" y1="75.171" x1="72.46" gradientUnits="userSpaceOnUse" id="SVGID_5_"><stop id="stop6374" offset="0" stop-color="#6c2c2f"/><stop id="stop6376" offset=".173" stop-color="#882730"/><stop id="stop6378" offset=".573" stop-color="#be1833"/><stop id="stop6380" offset=".859" stop-color="#dc0436"/><stop id="stop6382" offset="1" stop-color="#e60039"/></linearGradient><linearGradient id="SVGID_1_" gradientUnits="userSpaceOnUse" x1="117.386" y1="81.399" x2="157.33" y2="81.399" gradientTransform="matrix(.11486 0 0 .10313 2.195 5.231)"><stop offset="0" id="stop6330" stop-color="#007940"/><stop offset=".229" id="stop6332" stop-color="#00873f"/><stop offset=".743" id="stop6334" stop-color="#40a737"/><stop offset="1" id="stop6336" stop-color="#5cb531"/></linearGradient><radialGradient cx="605.714" cy="486.648" r="117.143" fx="605.714" fy="486.648" id="radialGradient19616-3" xlink:href="#linearGradient5060" gradientUnits="userSpaceOnUse" gradientTransform="matrix(-.01446 0 0 .00618 10.513 18.735)"/><radialGradient cx="605.714" cy="486.648" r="117.143" fx="605.714" fy="486.648" id="radialGradient19613-2" xlink:href="#linearGradient5060" gradientUnits="userSpaceOnUse" gradientTransform="matrix(.01446 0 0 .00618 13.487 18.735)"/></defs><path style="marker:none" id="rect2879" display="inline" overflow="visible" visibility="visible" opacity=".15" fill="url(#linearGradient19619-3)" fill-opacity="1" fill-rule="nonzero" stroke="none" stroke-width="1" d="M1.8 21h20.4v1.5H1.8z"/><path style="marker:none" id="path2881" d="M1.8 21v1.5c-.745.003-1.8-.336-1.8-.75S.83 21 1.8 21z" display="inline" overflow="visible" visibility="visible" opacity=".15" fill="url(#radialGradient19616-3)" fill-opacity="1" fill-rule="nonzero" stroke="none" stroke-width="1"/><path style="marker:none" id="path2883" d="M22.2 21v1.5c.745.003 1.8-.336 1.8-.75s-.83-.75-1.8-.75z" display="inline" overflow="visible" visibility="visible" opacity=".15" fill="url(#radialGradient19613-2)" fill-opacity="1" fill-rule="nonzero" stroke="none" stroke-width="1"/><rect width="23" height="17" rx="1.533" ry="1.513" x=".5" y="4.5" id="rect5505-21-3-8-5-2" style="marker:none" color="#000" display="inline" overflow="visible" visibility="visible" opacity="1" fill="url(#linearGradient937)" fill-opacity="1" fill-rule="nonzero" stroke="none" stroke-width="1"/><rect width="23" height="17" rx="1.533" ry="1.513" x=".5" y="4.5" id="rect5505-21-3-8-9-1-1" style="marker:none;font-variant-east_asian:normal" color="#000" display="inline" overflow="visible" visibility="visible" opacity=".5" fill="none" stroke="#555761" stroke-width="1" stroke-linecap="round" stroke-linejoin="round" stroke-miterlimit="4" stroke-dasharray="none" stroke-dashoffset="0" stroke-opacity="1" vector-effect="none" fill-opacity="1"/><rect width="21" height="15" rx=".5" ry=".5" x="1.5" y="5.5" id="rect6741-5-0-2-3" opacity="1" fill="none" stroke="url(#linearGradient3345)" stroke-width="1" stroke-linecap="round" stroke-linejoin="round" stroke-miterlimit="4" stroke-dasharray="none" stroke-dashoffset="0" stroke-opacity="1"/><style id="style6319" type="text/css"></style><path d="M17.538 7.987c-1.021 0-1.86.743-1.86 1.67v1.732h2.625c.061 0 .134-.002.185.007.592.028 1.032.303 1.032.78 0 .376-.298.696-.85.76v.02c.603.036 1.062.339 1.062.806 0 .505-.51.834-1.184.834H15.67v3.392h2.724c1.021 0 1.86-.74 1.86-1.667V7.987zm-.95 3.896v.806h.972c.03 0 .09 0 .1-.01.205-.027.379-.173.379-.393 0-.22-.174-.366-.379-.393-.02 0-.07-.01-.1-.01zm0 1.302v.88h1.072c.031 0 .103-.01.134-.01a.443.443 0 00.378-.43c0-.22-.174-.384-.378-.43a.607.607 0 00-.134-.01z" id="path6338" opacity="1" fill="url(#SVGID_1_)" stroke-width="1.822"/><path d="M5.537 8c-1.02 0-1.858.743-1.858 1.67v4.12c.52.229 1.062.376 1.603.376.643 0 .99-.349.99-.826v-1.945h1.593v1.936c0 .752-.521 1.367-2.287 1.367a8.665 8.665 0 01-1.91-.211V18h2.727c1.02 0 1.858-.743 1.858-1.67V8z" id="path6371" opacity="1" fill="url(#SVGID_4_)" stroke-width="1.822"/><path d="M11.528 8c-1.021 0-1.858.742-1.858 1.667v2.18c.47-.358 1.286-.587 2.603-.532.704.028 1.46.202 1.46.202v.705a3.84 3.84 0 00-1.409-.366c-1-.064-1.603.375-1.603 1.145 0 .778.603 1.218 1.603 1.144.582-.036 1.031-.201 1.409-.366v.705s-.745.174-1.46.202c-1.317.055-2.134-.174-2.603-.532v3.847h2.725c1.021 0 1.859-.742 1.859-1.667V8z" id="path6384" opacity="1" fill="url(#SVGID_5_)" stroke-width="1.822"/><path d="M2.467 5C1.654 5 1 5.592 1 6.328V14l22-6.63V6.328C23 5.592 22.346 5 21.533 5z" id="rect3872" display="inline" opacity=".3" fill="url(#linearGradient3887)" fill-opacity="1" stroke="none" stroke-width="1"/></svg>