<svg xmlns="http://www.w3.org/2000/svg" xmlns:xlink="http://www.w3.org/1999/xlink" version="1.0" width="24" height="24"><defs><linearGradient id="e"><stop offset="0"/><stop offset="1" stop-opacity="0"/></linearGradient><linearGradient id="d"><stop offset="0" stop-opacity="0"/><stop offset=".5"/><stop offset="1" stop-opacity="0"/></linearGradient><linearGradient id="a"><stop offset="0" stop-color="#fff"/><stop offset=".042" stop-color="#fff" stop-opacity=".235"/><stop offset=".964" stop-color="#fff" stop-opacity=".157"/><stop offset="1" stop-color="#fff" stop-opacity=".392"/></linearGradient><linearGradient xlink:href="#a" id="j" gradientUnits="userSpaceOnUse" gradientTransform="matrix(.56757 0 0 .4054 -1.622 3.27)" x1="40.29" y1="6.093" x2="40.29" y2="41.844"/><linearGradient xlink:href="#b" id="i" x1="23.25" y1="-28.809" x2="23.25" y2="70.295" gradientUnits="userSpaceOnUse" gradientTransform="matrix(.52272 0 0 .48571 -.545 .129)"/><linearGradient xlink:href="#c" id="k" x1="10" y1="-3" x2="20" y2="12" gradientUnits="userSpaceOnUse" gradientTransform="matrix(.56222 0 0 .51638 .193 8.91)"/><linearGradient id="c"><stop offset="0" stop-color="#fff"/><stop offset="1" stop-color="#fff" stop-opacity="0"/></linearGradient><linearGradient x1="302.857" y1="366.648" x2="302.857" y2="609.505" id="f" xlink:href="#d" gradientUnits="userSpaceOnUse" gradientTransform="matrix(.04225 0 0 .00618 -3.27 18.735)"/><linearGradient id="b"><stop offset="0" stop-color="#63c1ec"/><stop offset="1" stop-color="#0a7ec2"/></linearGradient><radialGradient cx="605.714" cy="486.648" r="117.143" fx="605.714" fy="486.648" id="g" xlink:href="#e" gradientUnits="userSpaceOnUse" gradientTransform="matrix(-.01446 0 0 .00618 10.513 18.735)"/><radialGradient cx="605.714" cy="486.648" r="117.143" fx="605.714" fy="486.648" id="h" xlink:href="#e" gradientUnits="userSpaceOnUse" gradientTransform="matrix(.01446 0 0 .00618 13.487 18.735)"/></defs><path style="marker:none" overflow="visible" opacity=".15" fill="url(#f)" d="M1.8 21h20.4v1.5H1.8z"/><path style="marker:none" d="M1.8 21v1.5c-.745.003-1.8-.336-1.8-.75S.83 21 1.8 21z" overflow="visible" opacity=".15" fill="url(#g)"/><path style="marker:none" d="M22.2 21v1.5c.745.003 1.8-.336 1.8-.75s-.83-.75-1.8-.75z" overflow="visible" opacity=".15" fill="url(#h)"/><rect width="23" height="17" rx="1.533" ry="1.513" x=".5" y="4.5" style="marker:none" color="#000" overflow="visible" fill="url(#i)"/><rect width="23" height="17" rx="1.533" ry="1.513" x=".5" y="4.5" style="marker:none;font-variant-east_asian:normal" color="#000" overflow="visible" opacity=".5" fill="none" stroke="#006199" stroke-linecap="round" stroke-linejoin="round"/><rect width="21" height="15" rx=".5" ry=".5" x="1.5" y="5.5" opacity=".3" fill="none" stroke="url(#j)" stroke-linecap="round" stroke-linejoin="round"/><path d="M2.467 5C1.654 5 1 5.592 1 6.328V14l22-6.63V6.328C23 5.592 22.346 5 21.533 5z" opacity=".2" fill="url(#k)"/><path d="M6.465 14.37l-.247.63H4l1.75-4h4.181l.422.883.394-.883h5.636l.482.55.518-.55H20l-1.858 1.995L19.92 15h-2.533l-.567-.59-.562.59H7.217l-.272-.63m.001.041h-.482zm5.358-2.84h-1.101l-.829 1.915-.89-1.915H8.381v2.772L7.245 11.57H6.212L4.996 14.43h.744l.247-.652h1.415l.283.652h1.368v-2.326l.97 2.326h.64l.964-2.286v2.286h.677zm4.544.926l-.786-.926h-3.156v2.858h3.051l.865-.938.87.938h.813l-1.242-1.446 1.279-1.412h-.85zm-1.661 1.36h-1.604v-.628h1.604v-.572h-1.604v-.514h1.604v-.486l1.19 1.297-1.19 1.303zM6.71 12.04l.462 1.16h-.96z" fill="#fff"/></svg>