<svg xmlns="http://www.w3.org/2000/svg" xmlns:xlink="http://www.w3.org/1999/xlink" height="24" width="24" version="1.0"><defs><linearGradient id="d"><stop offset="0"/><stop offset="1" stop-opacity="0"/></linearGradient><linearGradient id="c"><stop offset="0" stop-opacity="0"/><stop offset=".5"/><stop offset="1" stop-opacity="0"/></linearGradient><linearGradient id="a"><stop offset="0" stop-color="#fff"/><stop offset="0" stop-color="#fff" stop-opacity=".235"/><stop offset="1" stop-color="#fff" stop-opacity=".157"/><stop offset="1" stop-color="#fff" stop-opacity=".392"/></linearGradient><linearGradient y2="41.267" x2="40.29" y1="6.733" x1="40.29" gradientTransform="matrix(.56757 0 0 .4054 -1.622 3.27)" gradientUnits="userSpaceOnUse" id="j" xlink:href="#a"/><linearGradient gradientTransform="matrix(.56222 0 0 .51638 .193 8.91)" gradientUnits="userSpaceOnUse" y2="12" x2="20" y1="-3" x1="10" id="k" xlink:href="#b"/><linearGradient id="b"><stop offset="0" stop-color="#fff"/><stop offset="1" stop-color="#fff" stop-opacity="0"/></linearGradient><linearGradient gradientTransform="matrix(.04225 0 0 .00618 -3.27 18.735)" gradientUnits="userSpaceOnUse" xlink:href="#c" id="f" y2="609.505" x2="302.857" y1="366.648" x1="302.857"/><linearGradient id="e"><stop offset="0" stop-color="#333"/><stop offset="1" stop-color="#1a1a1a"/></linearGradient><linearGradient xlink:href="#e" id="i" gradientUnits="userSpaceOnUse" gradientTransform="translate(-18.43 4.723)" x1="32.431" y1="-.723" x2="32.431" y2="16.685"/><radialGradient gradientTransform="matrix(-.01446 0 0 .00618 10.513 18.735)" gradientUnits="userSpaceOnUse" xlink:href="#d" id="g" fy="486.648" fx="605.714" r="117.143" cy="486.648" cx="605.714"/><radialGradient gradientTransform="matrix(.01446 0 0 .00618 13.487 18.735)" gradientUnits="userSpaceOnUse" xlink:href="#d" id="h" fy="486.648" fx="605.714" r="117.143" cy="486.648" cx="605.714"/></defs><path style="marker:none" overflow="visible" opacity=".15" fill="url(#f)" d="M1.8 21h20.4v1.5H1.8z"/><path d="M1.8 21v1.5c-.745.003-1.8-.336-1.8-.75S.83 21 1.8 21z" style="marker:none" overflow="visible" opacity=".15" fill="url(#g)"/><path d="M22.2 21v1.5c.745.003 1.8-.336 1.8-.75s-.83-.75-1.8-.75z" style="marker:none" overflow="visible" opacity=".15" fill="url(#h)"/><rect style="marker:none;font-variation-settings:normal" y="4.5" x=".5" ry="1.513" rx="1.533" height="17" width="23" color="#000" overflow="visible" fill="url(#i)" stroke-width=".696"/><rect style="marker:none" y="4.5" x=".5" ry="1.513" rx="1.533" height="17" width="23" color="#000" overflow="visible" opacity=".5" fill="none" stroke="#000" stroke-linecap="round" stroke-linejoin="round"/><rect y="5.5" x="1.5" ry=".5" rx=".5" height="15" width="21" opacity=".25" fill="none" stroke="url(#j)" stroke-linecap="round" stroke-linejoin="round"/><circle style="font-variation-settings:normal" cx="9.5" cy="13" r="4" fill="#eb001b" stroke-width="3.93"/><circle style="font-variation-settings:normal" cx="14.5" cy="13" r="4" fill="#f79e1b" stroke-width="3.93"/><path style="font-variation-settings:normal" d="M11.998 9.88A4 4 0 0010.5 13a4 4 0 001.502 3.12A4 4 0 0013.5 13a4 4 0 00-1.502-3.12z" fill="#ff5f00" stroke-width="3.93"/><path d="M2.467 5C1.654 5 1 5.592 1 6.328V14l22-6.63V6.328C23 5.592 22.346 5 21.533 5z" opacity=".15" fill="url(#k)"/></svg>