<svg xmlns="http://www.w3.org/2000/svg" xmlns:xlink="http://www.w3.org/1999/xlink" version="1.0" width="24" height="24" id="svg2453"><defs id="defs2455"><linearGradient id="linearGradient5060"><stop id="stop5062" offset="0" stop-color="#000" stop-opacity="1"/><stop id="stop5064" offset="1" stop-color="#000" stop-opacity="0"/></linearGradient><linearGradient id="linearGradient5048"><stop id="stop5050" offset="0" stop-color="#000" stop-opacity="0"/><stop id="stop5056" offset=".5" stop-color="#000" stop-opacity="1"/><stop id="stop5052" offset="1" stop-color="#000" stop-opacity="0"/></linearGradient><linearGradient id="linearGradient3462"><stop offset="0" id="stop3464" stop-color="#fff" stop-opacity="1"/><stop offset="0" id="stop3466" stop-color="#fff" stop-opacity=".235"/><stop offset="1" id="stop3468" stop-color="#fff" stop-opacity=".157"/><stop offset="1" id="stop3470" stop-color="#fff" stop-opacity=".392"/></linearGradient><linearGradient xlink:href="#linearGradient3462" id="linearGradient3345" gradientUnits="userSpaceOnUse" gradientTransform="matrix(.56757 0 0 .4054 -1.622 3.27)" x1="40.29" y1="6.733" x2="40.29" y2="41.267"/><linearGradient xlink:href="#linearGradient863" id="linearGradient937" x1="23.25" y1="-28.809" x2="23.25" y2="70.295" gradientUnits="userSpaceOnUse" gradientTransform="matrix(.52272 0 0 .48571 -.545 .129)"/><linearGradient xlink:href="#linearGradient3880" id="linearGradient3887" x1="10" y1="-3" x2="20" y2="12" gradientUnits="userSpaceOnUse" gradientTransform="matrix(.56222 0 0 .51638 .193 8.91)"/><linearGradient id="linearGradient3880"><stop offset="0" id="stop3883" stop-color="#fff" stop-opacity="1"/><stop offset="1" id="stop3885" stop-color="#fff" stop-opacity="0"/></linearGradient><linearGradient x1="302.857" y1="366.648" x2="302.857" y2="609.505" id="linearGradient19619-3" xlink:href="#linearGradient5048" gradientUnits="userSpaceOnUse" gradientTransform="matrix(.04225 0 0 .00618 -3.27 18.735)"/><linearGradient id="linearGradient863"><stop offset="0" id="stop859" stop-color="#fafafa" stop-opacity="1"/><stop offset="1" id="stop861" stop-color="#d4d4d4" stop-opacity="1"/></linearGradient><radialGradient cx="605.714" cy="486.648" r="117.143" fx="605.714" fy="486.648" id="radialGradient19616-3" xlink:href="#linearGradient5060" gradientUnits="userSpaceOnUse" gradientTransform="matrix(-.01446 0 0 .00618 10.513 18.735)"/><radialGradient cx="605.714" cy="486.648" r="117.143" fx="605.714" fy="486.648" id="radialGradient19613-2" xlink:href="#linearGradient5060" gradientUnits="userSpaceOnUse" gradientTransform="matrix(.01446 0 0 .00618 13.487 18.735)"/></defs><path style="marker:none" id="rect2879" display="inline" overflow="visible" visibility="visible" opacity=".15" fill="url(#linearGradient19619-3)" fill-opacity="1" fill-rule="nonzero" stroke="none" stroke-width="1" d="M1.8 21h20.4v1.5H1.8z"/><path style="marker:none" id="path2881" d="M1.8 21v1.5c-.745.003-1.8-.336-1.8-.75S.83 21 1.8 21z" display="inline" overflow="visible" visibility="visible" opacity=".15" fill="url(#radialGradient19616-3)" fill-opacity="1" fill-rule="nonzero" stroke="none" stroke-width="1"/><path style="marker:none" id="path2883" d="M22.2 21v1.5c.745.003 1.8-.336 1.8-.75s-.83-.75-1.8-.75z" display="inline" overflow="visible" visibility="visible" opacity=".15" fill="url(#radialGradient19613-2)" fill-opacity="1" fill-rule="nonzero" stroke="none" stroke-width="1"/><rect width="23" height="17" rx="1.533" ry="1.513" x=".5" y="4.5" id="rect5505-21-3-8-5-2" style="marker:none" color="#000" display="inline" overflow="visible" visibility="visible" opacity="1" fill="url(#linearGradient937)" fill-opacity="1" fill-rule="nonzero" stroke="none" stroke-width="1"/><path id="path1153" d="M10 7a6 6 0 100 12h4a6 6 0 000-12h-4zm.5 1.5a4.5 4.5 0 110 9 4.5 4.5 0 010-9zm-.75 1.605A2.993 2.993 0 007.5 13c0 1.397.958 2.56 2.25 2.895v-5.79zm1.5 0v5.79A2.993 2.993 0 0013.5 13c0-1.397-.958-2.56-2.25-2.895z" style="marker:none" opacity="1" vector-effect="none" fill="#0079be" fill-opacity="1" stroke="none" stroke-width="1" stroke-linecap="butt" stroke-linejoin="miter" stroke-miterlimit="4" stroke-dasharray="none" stroke-dashoffset="0" stroke-opacity="1"/><rect width="23" height="17" rx="1.533" ry="1.513" x=".5" y="4.5" id="rect5505-21-3-8-9-1-1" style="marker:none;font-variant-east_asian:normal" color="#000" display="inline" overflow="visible" visibility="visible" opacity=".5" fill="none" stroke="#555761" stroke-width="1" stroke-linecap="round" stroke-linejoin="round" stroke-miterlimit="4" stroke-dasharray="none" stroke-dashoffset="0" stroke-opacity="1" vector-effect="none" fill-opacity="1"/><rect width="21" height="15" rx=".5" ry=".5" x="1.5" y="5.5" id="rect6741-5-0-2-3" opacity="1" fill="none" stroke="url(#linearGradient3345)" stroke-width="1" stroke-linecap="round" stroke-linejoin="round" stroke-miterlimit="4" stroke-dasharray="none" stroke-dashoffset="0" stroke-opacity="1"/><style id="style6319" type="text/css"></style><style id="style6319-6" type="text/css"></style><path d="M2.467 5C1.654 5 1 5.592 1 6.328V14l22-6.63V6.328C23 5.592 22.346 5 21.533 5z" id="rect3872" display="inline" opacity=".3" fill="url(#linearGradient3887)" fill-opacity="1" stroke="none" stroke-width="1"/><style id="style6319-0" type="text/css"></style><style id="style6319-6-2" type="text/css"></style></svg>