<svg xmlns="http://www.w3.org/2000/svg" xmlns:xlink="http://www.w3.org/1999/xlink" height="24" width="24" version="1.0"><defs><linearGradient id="e"><stop offset="0"/><stop offset="1" stop-opacity="0"/></linearGradient><linearGradient id="d"><stop offset="0" stop-opacity="0"/><stop offset=".5"/><stop offset="1" stop-opacity="0"/></linearGradient><linearGradient id="a"><stop offset="0" stop-color="#fff"/><stop offset=".042" stop-color="#fff" stop-opacity=".235"/><stop offset=".964" stop-color="#fff" stop-opacity=".157"/><stop offset="1" stop-color="#fff" stop-opacity=".392"/></linearGradient><linearGradient y2="41.844" x2="40.29" y1="6.093" x1="40.29" gradientTransform="matrix(.56757 0 0 .4054 -1.622 3.27)" gradientUnits="userSpaceOnUse" id="j" xlink:href="#a"/><linearGradient gradientTransform="matrix(.52272 0 0 .48571 -.545 .129)" gradientUnits="userSpaceOnUse" y2="70.295" x2="23.25" y1="-28.809" x1="23.25" id="i" xlink:href="#b"/><linearGradient gradientTransform="matrix(.56222 0 0 .51638 .193 8.91)" gradientUnits="userSpaceOnUse" y2="12" x2="20" y1="-3" x1="10" id="k" xlink:href="#c"/><linearGradient id="c"><stop offset="0" stop-color="#fff"/><stop offset="1" stop-color="#fff" stop-opacity="0"/></linearGradient><linearGradient gradientTransform="matrix(.04225 0 0 .00618 -3.27 18.735)" gradientUnits="userSpaceOnUse" xlink:href="#d" id="f" y2="609.505" x2="302.857" y1="366.648" x1="302.857"/><linearGradient id="b"><stop offset="0" stop-color="#fafafa"/><stop offset="1" stop-color="#d4d4d4"/></linearGradient><radialGradient gradientTransform="matrix(-.01446 0 0 .00618 10.513 18.735)" gradientUnits="userSpaceOnUse" xlink:href="#e" id="g" fy="486.648" fx="605.714" r="117.143" cy="486.648" cx="605.714"/><radialGradient gradientTransform="matrix(.01446 0 0 .00618 13.487 18.735)" gradientUnits="userSpaceOnUse" xlink:href="#e" id="h" fy="486.648" fx="605.714" r="117.143" cy="486.648" cx="605.714"/></defs><path style="marker:none" overflow="visible" opacity=".15" fill="url(#f)" d="M1.8 21h20.4v1.5H1.8z"/><path d="M1.8 21v1.5c-.745.003-1.8-.336-1.8-.75S.83 21 1.8 21z" style="marker:none" overflow="visible" opacity=".15" fill="url(#g)"/><path d="M22.2 21v1.5c.745.003 1.8-.336 1.8-.75s-.83-.75-1.8-.75z" style="marker:none" overflow="visible" opacity=".15" fill="url(#h)"/><rect style="marker:none" y="4.5" x=".5" ry="1.513" rx="1.533" height="17" width="23" color="#000" overflow="visible" fill="url(#i)"/><path d="M12.508 11.375A1.626 1.626 0 0010.878 13a1.626 1.626 0 001.63 1.625A1.626 1.626 0 0014.135 13a1.626 1.626 0 00-1.627-1.625zM23.5 13.367s-1.892 5.13-17.254 8.133h15.72a1.52 1.52 0 001.534-1.514v-6.619z" fill="#f56601"/><rect style="marker:none;font-variant-east_asian:normal" y="4.5" x=".5" ry="1.513" rx="1.533" height="17" width="23" color="#000" overflow="visible" opacity=".5" fill="none" stroke="#555761" stroke-linecap="round" stroke-linejoin="round"/><rect y="5.5" x="1.5" ry=".5" rx=".5" height="15" width="21" fill="none" stroke="url(#j)" stroke-linecap="round" stroke-linejoin="round"/><path d="M2.467 5C1.654 5 1 5.592 1 6.328V14l22-6.63V6.328C23 5.592 22.346 5 21.533 5z" opacity=".3" fill="url(#k)"/><path d="M10.067 11.449c-.877 0-1.58.69-1.58 1.553 0 .872.685 1.549 1.567 1.549a1.6 1.6 0 00.725-.173v-.682c-.231.232-.436.326-.699.326-.583 0-.997-.423-.997-1.024 0-.57.427-1.02.97-1.02.277 0 .486.099.726.334v-.68a1.478 1.478 0 00-.712-.183zm-2.737.018c-.525 0-.926.364-.926.85 0 .41.187.619.73.814.227.08.343.133.4.17a.356.356 0 01.174.307c0 .24-.19.418-.45.418a.685.685 0 01-.63-.396l-.375.36c.267.392.587.565 1.028.565.601 0 1.023-.4 1.023-.974 0-.472-.195-.685-.854-.926-.347-.129-.449-.214-.449-.374 0-.187.182-.329.431-.329.174 0 .316.072.467.24l.303-.396a1.298 1.298 0 00-.872-.329zm-4.584.05v2.967h.846c.45 0 .774-.106 1.059-.343a1.49 1.49 0 00.539-1.14c0-.875-.655-1.485-1.594-1.485zm2.71 0v2.967h.58v-2.968zm8.49 0l1.26 3.043h.31l1.283-3.044h-.628l-.802 1.994-.79-1.994zm3.115 0v2.967h1.642v-.502h-1.064v-.802h1.024v-.502H17.64v-.66h1.064v-.502zm2.025 0v2.967h.578v-1.192h.076l.801 1.192h.712l-.934-1.25c.436-.09.676-.387.676-.842 0-.555-.383-.876-1.05-.876zm.578.466h.178c.361 0 .557.152.557.44 0 .299-.196.46-.566.46h-.169zm-16.339.036h.155c.375 0 .601.067.793.24a1 1 0 01.32.739c0 .285-.12.57-.32.748-.182.164-.418.235-.793.235h-.155z" fill="#201d1c" stroke-width=".072"/></svg>