<svg xmlns="http://www.w3.org/2000/svg" xmlns:xlink="http://www.w3.org/1999/xlink" version="1.0" width="24" height="24"><defs><linearGradient id="e"><stop offset="0" stop-color="#fff"/><stop offset=".016" stop-color="#fff" stop-opacity=".235"/><stop offset=".978" stop-color="#fff" stop-opacity=".157"/><stop offset="1" stop-color="#fff" stop-opacity=".392"/></linearGradient><linearGradient id="d"><stop offset="0"/><stop offset="1" stop-opacity="0"/></linearGradient><linearGradient id="c"><stop offset="0" stop-opacity="0"/><stop offset=".5"/><stop offset="1" stop-opacity="0"/></linearGradient><linearGradient xlink:href="#a" id="j" x1="23.25" y1="-28.809" x2="23.25" y2="70.295" gradientUnits="userSpaceOnUse" gradientTransform="matrix(.52272 0 0 .48571 -.545 .129)"/><linearGradient xlink:href="#b" id="k" x1="10" y1="-3" x2="20" y2="12" gradientUnits="userSpaceOnUse" gradientTransform="matrix(.56222 0 0 .51638 .193 8.91)"/><linearGradient id="b"><stop offset="0" stop-color="#fff"/><stop offset="1" stop-color="#fff" stop-opacity="0"/></linearGradient><linearGradient x1="302.857" y1="366.648" x2="302.857" y2="609.505" id="g" xlink:href="#c" gradientUnits="userSpaceOnUse" gradientTransform="matrix(.04225 0 0 .00618 -3.27 18.735)"/><linearGradient id="a"><stop offset="0" stop-color="#fafafa"/><stop offset="1" stop-color="#d4d4d4"/></linearGradient><linearGradient xlink:href="#e" id="l" gradientUnits="userSpaceOnUse" gradientTransform="matrix(.56757 0 0 .4054 -1.622 3.27)" x1="40.29" y1="6.733" x2="40.29" y2="41.267"/><linearGradient xlink:href="#f" id="m" gradientUnits="userSpaceOnUse" gradientTransform="matrix(.56757 0 0 .4054 -1.622 3.27)" x1="40.29" y1="6.733" x2="40.29" y2="41.267"/><linearGradient id="f"><stop offset="0" stop-color="#fff"/><stop offset=".016" stop-color="#fff" stop-opacity=".235"/><stop offset=".978" stop-color="#fff" stop-opacity=".157"/><stop offset="1" stop-color="#fff" stop-opacity=".392"/></linearGradient><radialGradient cx="605.714" cy="486.648" r="117.143" fx="605.714" fy="486.648" id="h" xlink:href="#d" gradientUnits="userSpaceOnUse" gradientTransform="matrix(-.01446 0 0 .00618 10.513 18.735)"/><radialGradient cx="605.714" cy="486.648" r="117.143" fx="605.714" fy="486.648" id="i" xlink:href="#d" gradientUnits="userSpaceOnUse" gradientTransform="matrix(.01446 0 0 .00618 13.487 18.735)"/></defs><path style="marker:none" overflow="visible" opacity=".15" fill="url(#g)" d="M1.8 21h20.4v1.5H1.8z"/><path style="marker:none" d="M1.8 21v1.5c-.745.003-1.8-.336-1.8-.75S.83 21 1.8 21z" overflow="visible" opacity=".15" fill="url(#h)"/><path style="marker:none" d="M22.2 21v1.5c.745.003 1.8-.336 1.8-.75s-.83-.75-1.8-.75z" overflow="visible" opacity=".15" fill="url(#i)"/><rect width="23" height="17" rx="1.533" ry="1.513" x=".5" y="4.5" style="marker:none" color="#000" overflow="visible" fill="url(#j)"/><path d="M2.033 4.5A1.52 1.52 0 00.5 6.014V8h23V6.014A1.52 1.52 0 0021.967 4.5z" style="marker:none;font-variant-east_asian:normal" color="#000" overflow="visible" fill="#1a1f71" stroke-width=".696"/><path d="M.5 18v1.986A1.52 1.52 0 002.033 21.5h19.934a1.52 1.52 0 001.533-1.514V18z" style="marker:none;font-variant-east_asian:normal" color="#000" overflow="visible" fill="#f7b600" stroke-width=".696"/><path d="M23.5 8V6.014A1.52 1.52 0 0021.967 4.5H2.033A1.52 1.52 0 00.5 6.014V8" style="marker:none" color="#000" overflow="visible" opacity=".5" fill="none" stroke="#000948"/><path d="M.5 18v1.986A1.52 1.52 0 002.033 21.5h19.934a1.52 1.52 0 001.533-1.514V18" style="marker:none" color="#000" overflow="visible" opacity=".5" fill="none" stroke="#ad5f00"/><path d="M2.25 5C1.439 5 1 5.376 1 6.112V14l22-6.63V6.202C23 5.466 22.562 5 21.75 5z" opacity=".3" fill="url(#k)"/><path style="marker:none" d="M23.5 18V8M.5 8v10" color="#000" overflow="visible" opacity=".5" fill="none" stroke="#555761" stroke-linejoin="round"/><path d="M13.97 9.922c-1.508 0-2.57.813-2.576 1.975-.013.858.762 1.335 1.34 1.62.59.293.789.486.789.747-.006.4-.477.582-.916.582-.61 0-.936-.095-1.432-.317l-.202-.096-.213 1.34c.358.165 1.018.314 1.703.32 1.601 0 2.643-.8 2.655-2.04.007-.68-.399-1.2-1.278-1.625-.534-.274-.862-.458-.862-.738.006-.254.276-.515.879-.515.496-.013.861.106 1.138.227l.138.064.207-1.288a3.73 3.73 0 00-1.37-.256zm-6.966.11l-1.495 4.071-.164-.824c-.277-.953-1.142-1.989-2.109-2.504l1.368 5.222H6.22l2.397-5.965zm2.23 0l-.954 5.971h1.527l.953-5.97zm8.837 0c-.364 0-.64.108-.798.496l-2.267 5.475h1.602l.32-.894h1.961c.044.21.182.894.182.894h1.414l-1.233-5.97zm.107 1.612l.106.516s.289 1.429.352 1.728h-1.268c.126-.343.608-1.67.608-1.67-.006.013.126-.352.202-.574z" fill="#1a1f71" stroke-width="4.43"/><path style="marker:none" d="M4.121 10.031H1.665l-.025.12c1.916.496 3.185 1.691 3.706 3.127l-.534-2.745c-.088-.381-.358-.49-.69-.502z" fill="#f7b600" stroke-width=".696"/><rect width="21" height="15" rx=".5" ry=".5" x="1.5" y="5.5" opacity=".3" fill="none" stroke="url(#l)" stroke-linecap="round" stroke-linejoin="round"/><path d="M1.5 8v12c0 .277.223.5.5.5h20c.277 0 .5-.223.5-.5V8" opacity=".6" fill="none" stroke="url(#m)" stroke-linejoin="round"/></svg>