<svg xmlns="http://www.w3.org/2000/svg" xmlns:xlink="http://www.w3.org/1999/xlink" version="1.0" width="24" height="24" id="svg2453"><defs id="defs2455"><linearGradient id="linearGradient5060"><stop id="stop5062" offset="0" stop-color="#000" stop-opacity="1"/><stop id="stop5064" offset="1" stop-color="#000" stop-opacity="0"/></linearGradient><linearGradient id="linearGradient5048"><stop id="stop5050" offset="0" stop-color="#000" stop-opacity="0"/><stop id="stop5056" offset=".5" stop-color="#000" stop-opacity="1"/><stop id="stop5052" offset="1" stop-color="#000" stop-opacity="0"/></linearGradient><linearGradient id="linearGradient3462"><stop offset="0" id="stop3464" stop-color="#fff" stop-opacity="1"/><stop offset="0" id="stop3466" stop-color="#fff" stop-opacity=".235"/><stop offset="1" id="stop3468" stop-color="#fff" stop-opacity=".157"/><stop offset="1" id="stop3470" stop-color="#fff" stop-opacity=".392"/></linearGradient><linearGradient xlink:href="#linearGradient3462" id="linearGradient3345" gradientUnits="userSpaceOnUse" gradientTransform="matrix(.56757 0 0 .4054 -1.622 3.27)" x1="40.29" y1="6.733" x2="40.29" y2="41.267"/><linearGradient xlink:href="#linearGradient863" id="linearGradient937" x1="23.25" y1="-28.809" x2="23.25" y2="70.295" gradientUnits="userSpaceOnUse" gradientTransform="matrix(.52272 0 0 .48571 -.545 .129)"/><linearGradient xlink:href="#linearGradient3880" id="linearGradient3887" x1="10" y1="-3" x2="20" y2="12" gradientUnits="userSpaceOnUse" gradientTransform="matrix(.56222 0 0 .51638 .193 8.91)"/><linearGradient id="linearGradient3880"><stop offset="0" id="stop3883" stop-color="#fff" stop-opacity="1"/><stop offset="1" id="stop3885" stop-color="#fff" stop-opacity="0"/></linearGradient><linearGradient x1="302.857" y1="366.648" x2="302.857" y2="609.505" id="linearGradient19619-3" xlink:href="#linearGradient5048" gradientUnits="userSpaceOnUse" gradientTransform="matrix(.04225 0 0 .00618 -3.27 18.735)"/><linearGradient id="linearGradient863"><stop offset="0" id="stop859" stop-color="#fafafa" stop-opacity="1"/><stop offset="1" id="stop861" stop-color="#d4d4d4" stop-opacity="1"/></linearGradient><radialGradient cx="605.714" cy="486.648" r="117.143" fx="605.714" fy="486.648" id="radialGradient19616-3" xlink:href="#linearGradient5060" gradientUnits="userSpaceOnUse" gradientTransform="matrix(-.01446 0 0 .00618 10.513 18.735)"/><radialGradient cx="605.714" cy="486.648" r="117.143" fx="605.714" fy="486.648" id="radialGradient19613-2" xlink:href="#linearGradient5060" gradientUnits="userSpaceOnUse" gradientTransform="matrix(.01446 0 0 .00618 13.487 18.735)"/></defs><path style="marker:none" id="rect2879" display="inline" overflow="visible" visibility="visible" opacity=".15" fill="url(#linearGradient19619-3)" fill-opacity="1" fill-rule="nonzero" stroke="none" stroke-width="1" d="M1.8 21h20.4v1.5H1.8z"/><path style="marker:none" id="path2881" d="M1.8 21v1.5c-.745.003-1.8-.336-1.8-.75S.83 21 1.8 21z" display="inline" overflow="visible" visibility="visible" opacity=".15" fill="url(#radialGradient19616-3)" fill-opacity="1" fill-rule="nonzero" stroke="none" stroke-width="1"/><path style="marker:none" id="path2883" d="M22.2 21v1.5c.745.003 1.8-.336 1.8-.75s-.83-.75-1.8-.75z" display="inline" overflow="visible" visibility="visible" opacity=".15" fill="url(#radialGradient19613-2)" fill-opacity="1" fill-rule="nonzero" stroke="none" stroke-width="1"/><rect width="23" height="17" rx="1.533" ry="1.513" x=".5" y="4.5" id="rect5505-21-3-8-5-2" style="marker:none" color="#000" display="inline" overflow="visible" visibility="visible" opacity="1" fill="url(#linearGradient937)" fill-opacity="1" fill-rule="nonzero" stroke="none" stroke-width="1"/><rect width="23" height="17" rx="1.533" ry="1.513" x=".5" y="4.5" id="rect5505-21-3-8-9-1-1" style="marker:none;font-variant-east_asian:normal" color="#000" display="inline" overflow="visible" visibility="visible" opacity=".5" fill="none" stroke="#555761" stroke-width="1" stroke-linecap="round" stroke-linejoin="round" stroke-miterlimit="4" stroke-dasharray="none" stroke-dashoffset="0" stroke-opacity="1" vector-effect="none" fill-opacity="1"/><rect width="21" height="15" rx=".5" ry=".5" x="1.5" y="5.5" id="rect6741-5-0-2-3" opacity="1" fill="none" stroke="url(#linearGradient3345)" stroke-width="1" stroke-linecap="round" stroke-linejoin="round" stroke-miterlimit="4" stroke-dasharray="none" stroke-dashoffset="0" stroke-opacity="1"/><style id="style6319" type="text/css"></style><path d="M2.467 5C1.654 5 1 5.592 1 6.328V14l22-6.63V6.328C23 5.592 22.346 5 21.533 5z" id="rect3872" display="inline" opacity=".3" fill="url(#linearGradient3887)" fill-opacity="1" stroke="none" stroke-width="1"/><style id="style6319-6" type="text/css"></style><path d="M6.523 7c-.628 0-1.254.545-1.4 1.216L3.03 17.787c-.147.668.244 1.213.87 1.213h4.492c.627 0 1.256-.545 1.403-1.213l1.055-4.822a.874.874 0 01-.316-.053c-.352-.152-.298-.561-.25-.788.049-.222.13-.453.302-.624a.905.905 0 01.636-.246l.665-3.038c.147-.67-.243-1.216-.87-1.216zM5.46 10.056c.008.01.122.017.759.011l-.006.02c-.059.185-.387 1.583-.387 1.583l-.061.416.002.073c.02.206.141.314.346.314.128 0 .237-.04.331-.123.166-.143.214-.364.282-.674 0-.002.314-1.536.33-1.62.044.01.18.016.642.011-.003.005-.003.01-.006.02-.057.19-.395 1.641-.395 1.641l-.038.156c-.081.304-.17.648-.519.867-.2.13-.498.202-.814.202-.246 0-.68-.042-.833-.325a.679.679 0 01-.073-.325l.056-.437.03-.135.333-1.573s.016-.087.02-.102zm4.427 1.016c.09-.01.18.004.243.044.126.08.106.232-.044.343-.149.112-.372.137-.498.059-.127-.082-.112-.238.038-.346a.553.553 0 01.261-.1zm-1.53.147l.027.029-.044.167c.048-.03.092-.061.14-.088a.846.846 0 01.364-.09c.125 0 .26.037.316.19.054.136.018.302-.052.633l-.035.17a15.54 15.54 0 00-.126.685l-.027.023a5.875 5.875 0 00-.568.012l-.012-.023c.023-.108.048-.211.07-.32l.033-.149c.048-.228.097-.49.102-.571.005-.049.022-.17-.108-.17a.41.41 0 00-.17.055c-.032.122-.095.464-.126.619-.066.326-.07.363-.1.524l-.02.023a6.094 6.094 0 00-.58.012l-.012-.026.132-.583c.112-.527.14-.728.17-.996l.02-.018c.261-.04.324-.047.607-.108zm1.77.363l.003.015.006.011c-.025.114-.053.23-.079.346-.025.116-.052.229-.076.343-.05.242-.07.333-.082.398-.012.061-.016.095-.035.22l-.012.012-.012.011c-.136 0-.225-.003-.31 0-.085.001-.17.006-.296.012l-.006-.012-.009-.014c.035-.14.053-.188.07-.238.018-.05.034-.098.065-.24a6.22 6.22 0 00.082-.425c.019-.109.027-.203.04-.31l.01-.009.011-.009c.136-.02.223-.035.311-.05.089-.012.18-.033.32-.061zm1.011.062c-.14.043-.205.248-.258.498-.02.097-.038.185-.038.272.002.127.054.154.094.164z" id="path1406" opacity="1" fill="#e21836" fill-opacity="1" stroke-width="1"/><path d="M10.643 7c-.627 0-1.252.545-1.4 1.216l-.674 3.09c.103-.036.213-.07.275-.07.125 0 .26.038.317.19.053.137.017.303-.053.634l-.035.17a15.54 15.54 0 00-.126.685l-.027.023a5.875 5.875 0 00-.568.012l-.012-.023c.023-.108.048-.211.07-.32l.033-.149c.048-.227.097-.49.102-.571.004-.04-.002-.117-.073-.147L7.15 17.787c-.147.668.242 1.213.87 1.213h5.166c.629 0 .583-.545.73-1.213l.305-1.392h-.117l.105-.369h.09l.91-4.148a4.447 4.447 0 01-.452.026h-.038c-.027.016-.053.056-.053.056-.005.014-.09.39-.09.39-.002 0-.098.514-.115.6a7.472 7.472 0 00-.677-.006l.44-1.922.173-.867.02-.105c.08.01.276.012.765.006h.187c.086 0 .155.01.235.014l.404-1.854c.148-.67.43-1.216-.196-1.216zm4.334 3.478l-.003.032-.006.044-.185.858-.005.044h.1c.155 0 .306-.004.43-.07l.009-.01.176-.805c-.02-.014-.024-.04-.047-.05l-.393-.038zm-5.09.594c.09-.01.18.004.243.044.126.08.106.232-.044.343-.149.112-.372.137-.498.059-.127-.082-.112-.238.038-.346a.553.553 0 01.261-.1zm2.965.147l.02.029-.04.167c.047-.03.096-.061.143-.088a.841.841 0 01.364-.09c.123 0 .258.037.316.19.053.136.016.302-.055.633l-.036.17c-.074.366-.083.433-.123.685l-.029.023a5.873 5.873 0 00-.568.012l-.01-.023c.024-.108.048-.211.071-.32l.032-.149c.05-.228.095-.49.1-.571.005-.049.021-.17-.108-.17a.401.401 0 00-.17.055c-.031.122-.098.464-.13.619-.063.326-.067.363-.096.524l-.02.023a6.1 6.1 0 00-.58.012l-.012-.026.132-.583c.112-.527.138-.728.17-.996l.02-.018c.261-.04.327-.047.61-.108zm-1.585.029c.216 0 .425.05.542.211.078.105.138.28.059.65-.024.112-.093.383-.246.566-.2.225-.463.299-.721.299a.971.971 0 01-.366-.062c-.352-.152-.298-.561-.25-.788.049-.222.13-.453.302-.624.242-.237.55-.252.68-.252zm-1.14.334l.003.015.006.011c-.025.114-.053.23-.079.346-.025.116-.052.229-.076.343-.05.242-.07.333-.082.398-.012.061-.016.095-.035.22l-.012.012-.012.011c-.136 0-.225-.003-.31 0-.085.001-.17.006-.296.012l-.006-.012-.009-.014c.035-.14.053-.188.07-.238a1.74 1.74 0 00.065-.24 6.22 6.22 0 00.082-.425c.019-.109.027-.203.04-.31l.01-.009.011-.009c.136-.02.223-.035.311-.05.089-.012.18-.033.32-.061zm1.061.044c-.179 0-.248.235-.308.516-.02.097-.038.185-.038.272.002.177.116.179.135.179.063 0 .119-.045.167-.117.07-.1.12-.33.132-.393.062-.281.053-.457-.088-.457zm.024 2.042h.583l-.103.208h.586l-.105.38h-.803l-.088.083c-.038.039-.048.022-.097.05a.567.567 0 01-.266.073h-.255l.102-.366h.076c.065 0 .113-.009.135-.024a.318.318 0 00.085-.117zm3.185.003l-.276.978c-.046.168-.1.279-.135.329a.352.352 0 01-.134.131.487.487 0 01-.188.068 4.6 4.6 0 01-.249.009h-.782l-.22.773c-.021.077-.031.114-.018.135.011.018.04.038.077.038l.342-.032-.117.425h-.384a3.55 3.55 0 01-.275-.01c-.06-.005-.122 0-.164-.035-.036-.033-.09-.077-.088-.123.004-.041.019-.111.044-.208l.703-2.475h.498l-.073.266s.159-.133.27-.181c.11-.044.36-.082.36-.082zm-1.46.407l-.117.425s.16-.157.434-.208c.062-.012.451-.006.451-.006l.062-.21zm-2.209.454h1.433l-.106.364h-.574l-.088.31h.586l-.108.375h-.586l-.14.507c-.018.056.139.061.196.061l.293-.04-.12.415h-.66c-.053 0-.092-.01-.15-.023a.16.16 0 01-.105-.082c-.024-.041-.06-.073-.035-.161l.19-.671h-.325l.106-.38h.328l.088-.311h-.328zm2.045.13l-.05.175h.713c.083-.01.098.004.105 0l.053-.176zm.835.591h.384l-.047.237c-.02.074-.038.129-.09.176a.342.342 0 01-.267.1l-.278.011-.003.267c-.004.075.015.067.026.08.013.013.026.02.038.025l.088-.005.264-.018-.109.39h-.305c-.213 0-.373-.007-.424-.05-.052-.035-.057-.078-.056-.152l.02-1.038h.487l-.009.211h.117c.04 0 .069-.003.085-.014a.09.09 0 00.032-.053z" id="path1408" opacity="1" fill="#00447c" fill-opacity="1" stroke-width="1"/><path d="M15.607 7c-.629 0-1.257.545-1.404 1.216l-.67 3.07c.05.029.096.07.122.14.053.137.016.303-.055.634l-.036.17c-.074.366-.083.433-.123.685l-.029.023c-.097-.001-.174.006-.243.006l-.158.73h.02l-.073.266s.159-.133.27-.181c.11-.044.36-.082.36-.082l.809-.006-.276.978c-.047.168-.1.279-.135.328a.352.352 0 01-.134.132.487.487 0 01-.188.068 4.6 4.6 0 01-.249.009h-.735l-.208.946.342-.032-.117.424h-.31l-.276 1.263c-.147.668.245 1.213.873 1.213h4.49c.627 0 1.258-.545 1.406-1.213l2.089-9.571c.147-.67-.242-1.216-.87-1.216zm-1.19 3.05c.08.01.276.012.765.006h.187c.382.001.713.004.88.252a.579.579 0 01.087.334c0 .091-.012.183-.029.26a1.269 1.269 0 01-.44.747c-.325.256-.742.255-1.11.255h-.038c-.027.016-.053.056-.053.056-.005.014-.09.39-.09.39-.002 0-.098.514-.115.6a7.472 7.472 0 00-.677-.006l.44-1.922.173-.867.02-.105zm.56.428l-.003.032-.006.044-.185.858-.005.044h.1c.155 0 .306-.004.43-.07a.626.626 0 00.308-.431c.043-.21-.019-.371-.17-.434l-.393-.038zm3.613.758l.026.027.038.8c0 .017.002.027.003.043.155-.368.151-.268.34-.732a.39.39 0 01.003-.012l.02-.02c.257-.037.305-.045.583-.106l.024.027s-1.124 2.052-1.272 2.39l-.023.03h.006l-.22.398c-.07.137-.2.24-.404.24l-.35-.006.103-.36h.068a.183.183 0 00.082-.012c.018-.006.03-.022.044-.044l.123-.208v-.003c.175-.28.219-.403.401-.723-.032-.359-.05-.474-.076-.71-.016-.14-.037-.282-.053-.424-.034-.29-.025-.25-.058-.434l-.003-.003c.001-.01.003-.022.006-.032l.02-.02c.27-.037.276-.045.568-.106zm-.844.027l.005.026-.152.683c-.104.477-.142.72-.182.97l-.023.02a8.607 8.607 0 00-.604.009l-.014-.02.023-.103a.503.503 0 01-.299.146.65.65 0 01-.313-.061c-.35-.146-.293-.553-.243-.777.046-.221.127-.452.298-.62.244-.237.527-.3.648-.25a.39.39 0 01.196.173l.01-.067.02-.02c.27-.042.348-.054.63-.11zm-.903.398c-.18 0-.247.235-.307.51-.021.098-.04.186-.039.272.004.174.114.176.132.176a.305.305 0 00.22-.114.588.588 0 00.067-.14 19.222 19.222 0 00.088-.4c.013-.19-.047-.304-.16-.304zm-1.86 2.01h.53l-.056.2s.141-.11.276-.147c.11-.032.66-.046.844-.05h.568l.006.225c-.004.039.027.056.094.056h.114l-.106.372h-.307c-.266.02-.364-.1-.358-.237l-.006-.223-.058.2h-.182l-.548 1.93h.15l-.118.398h-.143l-.035.124h-.522l.035-.124h-1.057l.105-.369h.106l.556-1.96zm.422.395l-.141.495s.158-.077.243-.102c.087-.025.22-.032.22-.032l.1-.36zm-2.468.012l-.076.273-.03.143c.016-.014.162-.151.423-.2.062-.011.451-.005.451-.005l.062-.21zm3.467.352h1.7l-.106.375h-.572l-.088.301h.572l-.094.331h-.618l-.112.141h.252l.062.416c.007.042.005.07.017.088.013.015.089.02.132.02h.077l-.115.408h-.193c-.03 0-.073-.003-.135-.006-.057-.006-.098-.04-.138-.062a.193.193 0 01-.102-.14l-.059-.416-.281.407c-.09.13-.209.231-.413.231h-.393l.103-.363h.15c.043 0 .082-.02.11-.035a.168.168 0 00.083-.073l.41-.616h-.542l.093-.33h.619l.088-.302h-.613zm-3.61.231l-.038.176h.68c.083-.01.098.004.105 0l.053-.176zm2.4.144l-.144.512s.16-.086.246-.114c.087-.021.22-.038.22-.038l.102-.36zm-1.586.448h.384l-.047.237c-.02.074-.038.128-.09.176a.342.342 0 01-.267.1l-.278.011-.003.267c-.004.075.015.067.026.079.013.014.026.02.038.026l.088-.005.264-.018-.109.39h-.305c-.213 0-.373-.007-.424-.05-.052-.035-.057-.078-.056-.153l.02-1.037h.487l-.009.211h.117c.04 0 .069-.003.085-.014a.09.09 0 00.032-.053zm1.372.316l-.123.434h.422l.123-.434z" id="path1410" opacity="1" fill="#007b84" fill-opacity="1" stroke-width="1"/></svg>